HIERARCHY
ROOT root
{
	OFFSET 0.000000 0.000000 0.000000
	CHANNELS 6 Xposition Yposition Zposition Zrotation Yrotation Xrotation
	JOINT lhip
	{
		OFFSET 0.058581 -0.082280 -0.017664
		CHANNELS 3 Zrotation Yrotation Xrotation
		JOINT lknee
		{
			OFFSET 0.043451 -0.386469 0.008037
			CHANNELS 3 Zrotation Yrotation Xrotation
			JOINT lankle
			{
				OFFSET -0.014790 -0.426874 -0.037428
				CHANNELS 3 Zrotation Yrotation Xrotation
				JOINT ltoe
				{
					OFFSET 0.041054 -0.060286 0.122042
					CHANNELS 3 Zrotation Yrotation Xrotation
					End Site
					{
						OFFSET 0.000000 0.000000 0.000000
					}
				}
			}
		}
	}
	JOINT rhip
	{
		OFFSET -0.060310 -0.090513 -0.013543
		CHANNELS 3 Zrotation Yrotation Xrotation
		JOINT rknee
		{
			OFFSET -0.043257 -0.383688 -0.004843
			CHANNELS 3 Zrotation Yrotation Xrotation
			JOINT rankle
			{
				OFFSET 0.019056 -0.420046 -0.034562
				CHANNELS 3 Zrotation Yrotation Xrotation
				JOINT rtoe
				{
					OFFSET -0.034840 -0.062106 0.130323
					CHANNELS 3 Zrotation Yrotation Xrotation
					End Site
					{
						OFFSET 0.000000 0.000000 0.000000
					}
				}
			}
		}
	}
	JOINT lowerback
	{
		OFFSET 0.004439 0.124404 -0.038385
		CHANNELS 3 Zrotation Yrotation Xrotation
		JOINT upperback
		{
			OFFSET 0.004488 0.137956 0.026820
			CHANNELS 3 Zrotation Yrotation Xrotation
			JOINT chest
			{
				OFFSET -0.002265 0.056032 0.002855
				CHANNELS 3 Zrotation Yrotation Xrotation
				JOINT lowerneck
				{
					OFFSET -0.013390 0.211636 -0.033468
					CHANNELS 3 Zrotation Yrotation Xrotation
					JOINT upperneck
					{
						OFFSET 0.010113 0.088937 0.050410
						CHANNELS 3 Zrotation Yrotation Xrotation
						End Site
						{
							OFFSET 0.000000 0.000000 0.000000
						}
					}
				}
				JOINT lclavicle
				{
					OFFSET 0.071702 0.114000 -0.018898
					CHANNELS 3 Zrotation Yrotation Xrotation
					JOINT lshoulder
					{
						OFFSET 0.122921 0.045205 -0.019046
						CHANNELS 3 Zrotation Yrotation Xrotation
						JOINT lelbow
						{
							OFFSET 0.255332 -0.015649 -0.022946
							CHANNELS 3 Zrotation Yrotation Xrotation
							JOINT lwrist
							{
								OFFSET 0.265709 0.012698 -0.007375
								CHANNELS 3 Zrotation Yrotation Xrotation
								End Site
								{
									OFFSET 0.000000 0.000000 0.000000
								}
							}
						}
					}
				}
				JOINT rclavicle
				{
					OFFSET -0.082954 0.112472 -0.023707
					CHANNELS 3 Zrotation Yrotation Xrotation
					JOINT rshoulder
					{
						OFFSET -0.113228 0.046853 -0.008472
						CHANNELS 3 Zrotation Yrotation Xrotation
						JOINT relbow
						{
							OFFSET -0.260127 -0.014369 -0.031269
							CHANNELS 3 Zrotation Yrotation Xrotation
							JOINT rwrist
							{
								OFFSET -0.269108 0.006794 -0.006027
								CHANNELS 3 Zrotation Yrotation Xrotation
								End Site
								{
									OFFSET 0.000000 0.000000 0.000000
								}
							}
						}
					}
				}
			}
		}
	}
}
MOTION
Frames: 6
Frame Time: 0.033333
1.766375 0.636447 0.983917 -89.356194 2.556982 85.613242 0.705853 -1.461144 7.154787 -2.334185 -15.844906 3.980465 6.205181 9.119830 -19.021364 0.000000 -0.000000 0.000000 4.075609 -3.589069 4.857153 3.751658 1.831631 5.764373 1.944176 -5.304358 -14.029420 0.000000 -0.000000 0.000000 -1.932494 3.369718 4.741810 1.473239 -0.719638 2.349031 1.615245 -0.502547 5.467075 6.072089 1.076084 0.004115 3.644535 -3.262575 8.231122 -24.928516 7.639119 2.405659 -63.619266 -3.606937 7.027599 11.715254 -23.278700 3.008806 -1.256245 -1.979315 -10.203289 22.913644 -5.767503 1.432293 63.499623 0.051310 10.497491 -16.213826 27.991488 -4.276429 6.169165 1.904254 -11.342147 
1.765530 0.636421 0.984106 -89.086732 2.689500 85.437261 0.939626 -1.343745 7.433560 -2.404657 -16.099013 3.892066 5.856397 8.902491 -19.093282 0.000000 -0.000000 0.000000 4.218550 -3.785783 5.249341 3.732072 1.747888 5.534564 1.972430 -5.288801 -14.055614 0.000000 -0.000000 0.000000 -1.873188 3.314207 4.939771 1.526264 -0.675130 2.337011 1.688673 -0.509049 5.536390 6.269873 1.077917 -0.374381 3.683922 -3.548059 8.258663 -24.883023 7.701434 2.266929 -63.644986 -3.715802 7.105541 11.842060 -23.151553 3.010622 -1.286197 -2.204096 -10.340745 23.031556 -5.753877 1.353173 63.451688 -0.211165 10.365490 -16.035682 26.609157 -4.153744 6.128267 1.785902 -11.036568 
1.766160 0.636421 0.983929 -89.071052 2.620572 85.618103 0.847037 -1.562319 7.219125 -2.405540 -16.011356 3.866917 5.926437 9.051196 -19.063895 0.000000 -0.000000 0.000000 4.198198 -3.498079 4.948308 3.741050 1.571697 5.674775 1.948874 -5.396770 -14.154401 0.000000 -0.000000 0.000000 -1.928896 3.378318 4.853492 1.538340 -0.612711 2.254069 1.661970 -0.505296 5.611202 6.318522 0.976103 -0.444339 3.603157 -3.758456 8.260513 -24.794411 7.741054 2.304729 -63.611711 -3.992542 7.224944 11.904944 -23.234092 2.969536 -1.450938 -2.224978 -10.361417 23.105525 -5.807689 1.422977 63.547450 -0.230372 10.276893 -15.765005 25.183187 -4.268006 6.232266 1.981546 -11.099552 
1.765960 0.636146 0.983851 -88.918522 2.533318 85.612455 0.682861 -1.607693 7.296270 -2.288552 -16.081568 3.746345 5.836638 9.095949 -19.128424 0.000000 -0.000000 0.000000 4.073701 -3.383935 5.024008 3.788136 1.449710 5.666460 2.035440 -5.593207 -14.158269 0.000000 -0.000000 0.000000 -1.980933 3.382251 4.850972 1.530911 -0.546250 2.250810 1.663037 -0.538332 5.731758 6.440167 0.849985 -0.862997 3.659964 -3.855457 8.161806 -24.850778 7.723269 2.259657 -63.512126 -4.318010 7.308518 12.052896 -23.443624 2.713293 -1.368538 -2.231190 -10.377858 23.234010 -5.888164 1.341521 63.445226 -0.576121 10.249134 -15.352094 24.005364 -4.327354 6.471011 2.007277 -11.073383 
1.766177 0.636256 0.983735 -88.923143 2.498032 85.587999 0.675873 -1.622974 7.291526 -2.345773 -16.121527 3.777784 5.908194 9.058042 -19.046302 0.000000 -0.000000 0.000000 4.049027 -3.424967 5.005054 3.734194 1.420801 5.743733 1.980883 -5.468772 -14.201494 0.000000 -0.000000 0.000000 -2.000689 3.372575 4.931462 1.531846 -0.549805 2.254933 1.651696 -0.501806 5.610833 6.333664 0.865927 -0.531177 3.628079 -3.781474 8.337070 -24.738450 7.686570 2.373131 -63.595167 -4.503947 7.320700 12.148198 -23.629418 2.655764 -1.474513 -2.209734 -10.565440 23.211210 -5.821087 1.555403 63.562005 -0.613315 10.101467 -15.278520 23.207082 -4.338151 6.645646 2.033385 -11.048235 
1.766201 0.636525 0.983732 -88.970741 2.482125 85.669277 0.700132 -1.659779 7.236941 -2.414104 -16.168238 3.749338 6.025391 9.104716 -18.950230 0.000000 -0.000000 0.000000 4.049906 -3.392529 4.972273 3.753429 1.519630 5.600588 1.959028 -5.534261 -14.162571 0.000000 -0.000000 0.000000 -2.030308 3.363553 4.861430 1.515299 -0.548663 2.175254 1.664942 -0.453018 5.568612 6.256278 0.749060 -0.415332 3.656402 -3.741075 8.314637 -24.655963 7.675152 2.532424 -63.578912 -4.711529 7.343816 12.131994 -24.073945 2.650888 -1.552801 -2.094506 -10.773834 22.983095 -5.775386 1.810223 63.971438 -0.843372 9.970813 -15.253163 22.446511 -4.104792 6.982338 1.448747 -11.032585 
